<svg viewBox="0 0 96 96" xmlns="http://www.w3.org/2000/svg" xmlns:xlink="http://www.w3.org/1999/xlink" id="Icons_Research" overflow="hidden"><path d="M72.5 63.1C70.9 61.5 68.5 60.7 66.3 61.2L61.8 56.8C65.8 51.6 68 45.2 68 38.6 68.1 21.9 54.6 8.4 38 8.3 21.4 8.2 7.9 21.7 7.8 38.3 7.7 54.9 21.2 68.4 37.8 68.5 44.4 68.5 50.9 66.3 56.2 62.3L60.6 66.7C60.2 69 60.9 71.3 62.5 73L75 85.5C77.7 88.2 82.2 88.2 84.9 85.5 87.6 82.8 87.6 78.3 84.9 75.6L72.5 63.1ZM38 62.5C24.7 62.5 14 51.8 14 38.5 14 25.2 24.7 14.5 38 14.5 51.3 14.5 62 25.2 62 38.5 62 51.7 51.2 62.5 38 62.5Z" fill="#009286"/><path d="M59.5 37 53.8 37C53.3 37.1 52.8 37.4 52.5 37.8L48.7 41.9 45.5 30.8C45.2 29.9 44.2 29.3 43.3 29.6 42.8 29.8 42.3 30.1 42.1 30.7L36.1 46.6 32 24.6C31.8 23.6 30.9 23 30 23.2 29.4 23.3 28.9 23.8 28.6 24.4L24.3 37 16.5 37 16.5 41 25.6 41C26.4 40.9 27.1 40.3 27.3 39.5L29.8 31.9 33.8 53.4C33.9 54.2 34.6 54.8 35.4 54.8L35.6 54.8C36.3 54.8 37 54.4 37.3 53.7L43.7 36.9 46.3 45.9C46.6 46.8 47.5 47.4 48.5 47.1 48.8 47 49.1 46.8 49.3 46.6L54.7 41 59.6 41 59.6 37Z" fill="#009286"/></svg>
