<svg viewBox="0 0 96 96" xmlns="http://www.w3.org/2000/svg" xmlns:xlink="http://www.w3.org/1999/xlink" id="Icons_Database" overflow="hidden"><g><ellipse cx="48" cy="18" rx="28" ry="8" fill="#009286"/><path d="M68 38C66.8 38 66 37.2 66 36 66 34.8 66.8 34 68 34 69.2 34 70 34.8 70 36 70 37.2 69.2 38 68 38ZM48 30C32.6 30 20 26.4 20 22L20 38C20 42.4 32.6 46 48 46 63.4 46 76 42.4 76 38L76 22C76 26.4 63.4 30 48 30Z" fill="#009286"/><path d="M68 58C66.8 58 66 57.2 66 56 66 54.8 66.8 54 68 54 69.2 54 70 54.8 70 56 70 57.2 69.2 58 68 58ZM48 50C32.6 50 20 46.4 20 42L20 58C20 62.4 32.6 66 48 66 63.4 66 76 62.4 76 58L76 42C76 46.4 63.4 50 48 50Z" fill="#009286"/><path d="M68 78C66.8 78 66 77.2 66 76 66 74.8 66.8 74 68 74 69.2 74 70 74.8 70 76 70 77.2 69.2 78 68 78ZM48 70C32.6 70 20 66.4 20 62L20 78C20 82.4 32.6 86 48 86 63.4 86 76 82.4 76 78L76 62C76 66.4 63.4 70 48 70Z" fill="#009286"/></g></svg>