<svg viewBox="0 0 96 96" xmlns="http://www.w3.org/2000/svg" xmlns:xlink="http://www.w3.org/1999/xlink" id="Icons_Stopwatch" overflow="hidden"><circle cx="48" cy="33" r="2" fill="#009286"/><circle cx="48" cy="73" r="2" fill="#009286"/><circle cx="68" cy="52" r="2" fill="#009286"/><circle cx="28" cy="52" r="2" fill="#009286"/><path d="M50 38 46 38 46 52C46 52.5 46.2 53 46.6 53.4L56.5 63.3 59.3 60.5 50 51.2 50 38Z" fill="#009286"/><path d="M48 81C32.5 81 20 68.5 20 53 20 37.5 32.5 25 48 25 63.5 25 76 37.5 76 53 76 68.5 63.5 81 48 81L48 81ZM71.7 28.6 74.7 25.6C75.8 24.4 75.8 22.6 74.6 21.4 73.5 20.3 71.6 20.2 70.4 21.3L67 24.8C62.2 21.6 56.7 19.6 51 19.2L51 15 60 15 60 9 36 9 36 15 45 15 45 19.1C29.1 20.5 16.3 32.8 14.3 48.7 12.3 64.6 21.6 79.7 36.7 85 51.8 90.3 68.5 84.5 77 70.9 85.5 57.3 83.1 39.7 71.7 28.6L71.7 28.6Z" fill="#009286"/></svg>
