<svg viewBox="0 0 96 96" xmlns="http://www.w3.org/2000/svg" xmlns:xlink="http://www.w3.org/1999/xlink" id="Icons_Processor" overflow="hidden"><rect x="10" y="34" width="7" height="4" fill="#009286"/><rect x="10" y="26" width="7" height="4" fill="#009286"/><rect x="10" y="42" width="7" height="4" fill="#009286"/><rect x="10" y="66" width="7" height="4" fill="#009286"/><rect x="10" y="58" width="7" height="4" fill="#009286"/><rect x="10" y="50" width="7" height="4" fill="#009286"/><rect x="79" y="58" width="7" height="4" fill="#009286"/><rect x="79" y="66" width="7" height="4" fill="#009286"/><rect x="79" y="50" width="7" height="4" fill="#009286"/><rect x="79" y="26" width="7" height="4" fill="#009286"/><rect x="79" y="42" width="7" height="4" fill="#009286"/><rect x="79" y="34" width="7" height="4" fill="#009286"/><rect x="50" y="10" width="4" height="7" fill="#009286"/><rect x="66" y="10" width="4" height="7" fill="#009286"/><rect x="58" y="10" width="4" height="7" fill="#009286"/><rect x="42" y="10" width="4" height="7" fill="#009286"/><rect x="26" y="10" width="4" height="7" fill="#009286"/><rect x="34" y="10" width="4" height="7" fill="#009286"/><rect x="34" y="79" width="4" height="7" fill="#009286"/><rect x="26" y="79" width="4" height="7" fill="#009286"/><rect x="42" y="79" width="4" height="7" fill="#009286"/><rect x="50" y="79" width="4" height="7" fill="#009286"/><rect x="58" y="79" width="4" height="7" fill="#009286"/><rect x="66" y="79" width="4" height="7" fill="#009286"/><rect x="35" y="35" width="26" height="26" fill="#009286"/><path d="M71 21 25 21C22.7909 21 21 22.7909 21 25L21 71C21 73.2091 22.7909 75 25 75L71 75C73.2091 75 75 73.2091 75 71L75 25C75 22.7909 73.2091 21 71 21ZM65 65 31 65 31 31 65 31Z" fill="#009286"/></svg>
